<?xml version="1.0" standalone="no"?>
<!DOCTYPE svg PUBLIC "-//W3C//DTD SVG 20010904//EN"
 "http://www.w3.org/TR/2001/REC-SVG-20010904/DTD/svg10.dtd">
<svg version="1.0" xmlns="http://www.w3.org/2000/svg"
 width="940.000000pt" height="940.000000pt" viewBox="0 0 940.000000 940.000000"
 preserveAspectRatio="xMidYMid meet">
<metadata>
Created by potrace 1.14, written by Peter Selinger 2001-2017
</metadata>
<g transform="translate(0.000000,940.000000) scale(0.100000,-0.100000)"
fill="#000000" stroke="none">
<path d="M3960 8882 c0 -6 15 -21 33 -33 17 -13 34 -27 35 -31 2 -4 10 -8 18
-8 8 0 14 -4 14 -9 0 -5 3 -16 6 -24 3 -10 -17 -4 -62 19 -37 19 -76 34 -87
34 -18 0 -17 -1 2 -26 12 -15 21 -30 21 -35 0 -11 -71 10 -100 30 -60 42 -139
80 -145 71 -4 -6 2 -13 12 -17 10 -4 24 -13 31 -20 8 -7 18 -11 23 -8 5 4 9 1
9 -4 0 -16 42 -61 57 -61 7 0 13 -3 13 -7 0 -5 -30 -9 -66 -10 -74 -1 -99 -15
-69 -37 16 -12 3 -14 -106 -19 -189 -8 -271 -51 -105 -55 43 -2 84 -6 90 -9 6
-4 25 -7 43 -6 18 0 33 -4 33 -8 0 -5 -3 -9 -7 -9 -169 -10 -158 -9 -259 -31
-38 -9 -60 -9 -83 -1 -17 6 -31 7 -31 2 0 -5 8 -11 18 -13 9 -3 -3 -6 -28 -7
-41 -1 -65 -5 -110 -15 -8 -2 -18 -4 -22 -4 -5 -1 -8 -5 -8 -10 0 -12 39 -20
130 -27 41 -4 81 -10 88 -13 7 -4 -40 -17 -105 -30 -65 -12 -130 -24 -146 -27
-28 -6 -28 -26 1 -23 10 1 62 0 117 -1 85 -2 94 -4 60 -11 -57 -13 -149 -27
-222 -34 -18 -2 -48 -12 -66 -24 -19 -11 -37 -18 -40 -14 -4 3 -7 2 -7 -4 0
-13 47 -26 60 -18 6 4 10 2 10 -3 0 -5 -25 -20 -55 -32 -30 -12 -55 -27 -55
-32 0 -9 57 -2 97 13 39 15 35 -10 -4 -27 -21 -10 -41 -16 -45 -16 -5 1 -8 -3
-8 -9 0 -5 -17 -17 -37 -25 -32 -14 -99 -62 -140 -100 -22 -21 0 -24 36 -4 47
25 181 70 181 61 0 -4 -18 -17 -40 -30 -22 -12 -40 -27 -40 -32 0 -6 -4 -7
-10 -4 -5 3 -10 1 -10 -4 0 -6 -6 -11 -14 -11 -8 0 -16 -4 -18 -9 -1 -5 -10
-11 -18 -13 -8 -2 -28 -17 -45 -34 -16 -17 -36 -29 -42 -27 -7 3 -13 1 -13 -4
0 -5 -20 -24 -45 -43 -30 -22 -42 -37 -35 -44 6 -6 16 -4 28 7 25 23 35 21 27
-4 -9 -28 -37 -59 -47 -53 -4 3 -8 -2 -8 -11 0 -9 -4 -13 -10 -10 -5 3 -10 2
-10 -4 0 -5 -9 -13 -20 -16 -27 -9 -25 -27 3 -23 22 3 23 1 10 -44 -4 -12 0
-18 11 -18 9 0 16 6 16 13 0 8 28 28 61 46 34 18 69 40 78 48 15 15 16 15 19
-2 2 -9 -2 -21 -10 -26 -7 -5 -9 -9 -4 -9 5 0 1 -9 -9 -20 -10 -11 -15 -20
-11 -20 4 0 -7 -13 -24 -30 -17 -16 -28 -30 -25 -30 3 0 -9 -28 -26 -62 -21
-42 -29 -70 -25 -89 3 -15 0 -42 -5 -61 -12 -38 -21 -133 -11 -124 3 4 7 15 9
26 1 11 12 36 23 57 16 31 20 34 26 17 14 -42 14 -45 1 -38 -9 6 -9 4 -1 -7 8
-9 12 -127 14 -364 3 -499 11 -659 33 -681 4 -4 7 -16 7 -26 0 -10 5 -18 11
-18 5 0 8 -4 4 -9 -3 -5 -1 -12 5 -16 6 -4 8 -11 5 -16 -4 -5 -2 -9 4 -9 5 0
13 -10 17 -22 3 -13 12 -30 19 -38 14 -16 16 -50 4 -50 -4 0 -11 5 -14 11 -4
6 -13 8 -20 5 -8 -3 -15 0 -17 6 -6 16 -115 15 -153 -1 -16 -7 -31 -11 -32 -9
-1 2 -22 -18 -47 -43 -25 -26 -48 -44 -52 -40 -4 3 -4 1 -1 -5 4 -6 -4 -23
-18 -38 -13 -14 -22 -26 -20 -26 3 0 -4 -15 -15 -34 -21 -38 -52 -136 -43
-136 3 0 0 -7 -7 -15 -7 -8 -9 -15 -4 -15 5 0 9 -30 10 -68 0 -37 3 -83 7
-102 14 -74 19 -96 27 -115 4 -11 15 -41 25 -67 9 -27 21 -48 26 -48 6 0 7 -5
4 -10 -4 -6 1 -22 9 -35 9 -14 14 -25 10 -25 -4 0 -1 -7 6 -15 7 -8 9 -15 5
-15 -4 0 -2 -7 5 -15 7 -9 10 -18 7 -22 -4 -3 4 -20 16 -37 12 -17 21 -33 21
-36 -1 -3 2 -15 7 -28 5 -13 9 -29 9 -36 0 -7 3 -16 6 -19 8 -7 54 -116 58
-134 1 -7 5 -16 9 -19 4 -4 7 -16 7 -26 0 -11 5 -16 10 -13 6 3 10 0 10 -8 0
-48 92 -163 156 -198 31 -16 114 -16 124 1 3 5 18 12 33 15 15 4 27 12 27 18
0 6 3 7 7 4 3 -4 12 -2 19 4 10 8 18 -5 34 -60 20 -63 21 -89 18 -270 -2 -111
-6 -201 -9 -201 -4 0 -7 -15 -7 -32 0 -33 -8 -106 -16 -143 -2 -11 -7 -40 -10
-65 -7 -50 -13 -84 -16 -87 -2 -2 -3 -6 -4 -10 -1 -5 -10 -35 -21 -68 -10 -33
-19 -62 -20 -65 -1 -3 -5 -18 -9 -35 -4 -16 -11 -38 -17 -47 -5 -10 -9 -23 -9
-30 0 -7 -10 -39 -22 -71 -20 -52 -29 -62 -73 -85 -50 -26 -51 -26 -240 -23
-303 6 -513 4 -532 -4 -10 -5 -27 -10 -38 -12 -11 -2 -39 -12 -62 -23 -24 -11
-49 -20 -57 -20 -7 0 -49 -18 -92 -41 -44 -22 -81 -40 -84 -39 -3 1 -14 -1
-25 -4 -11 -3 -22 -5 -24 -5 -2 0 -7 -3 -10 -8 -6 -10 -166 -76 -176 -74 -3 1
-13 -5 -21 -14 -14 -13 -43 -20 -67 -16 -5 1 -6 -3 -3 -8 3 -5 -4 -11 -17 -14
-12 -3 -46 -14 -75 -25 -29 -11 -54 -21 -55 -21 -1 0 -9 -2 -17 -5 -16 -5
-103 -25 -135 -31 -11 -2 -21 -4 -22 -5 -2 -2 -6 -3 -10 -4 -5 -1 -14 -5 -21
-9 -6 -5 -17 -5 -23 -1 -6 3 -14 2 -18 -4 -3 -5 -24 -13 -46 -16 -22 -4 -48
-9 -57 -12 -9 -3 -26 -7 -37 -9 -18 -4 -43 -10 -76 -19 -5 -1 -19 -5 -30 -9
-11 -3 -33 -9 -50 -12 -16 -3 -41 -8 -55 -11 -14 -3 -34 -6 -45 -9 -11 -2 -20
-4 -20 -5 0 -1 -9 -3 -19 -5 -11 -2 -31 -7 -45 -11 -14 -4 -28 -8 -31 -9 -5
-1 -48 -11 -85 -20 -11 -3 -47 -12 -80 -20 -33 -9 -67 -17 -75 -19 -8 -2 -35
-10 -60 -17 -25 -7 -54 -14 -65 -15 -23 -3 -59 -11 -62 -14 -2 -2 -6 -3 -10
-4 -5 -1 -13 -4 -18 -8 -6 -3 -27 -9 -48 -13 l-37 -7 0 -1399 0 -1399 4595 0
c4374 0 4595 1 4586 18 -5 9 -11 33 -14 52 -9 55 -16 83 -43 183 -14 50 -27
101 -29 112 -1 12 -10 43 -20 70 -9 28 -18 57 -20 65 -2 8 -4 16 -5 18 -2 1
-3 5 -5 10 -1 4 -5 15 -9 24 -4 9 -8 22 -10 30 -1 7 -5 19 -9 26 -5 6 -6 12
-2 12 3 0 0 10 -7 23 -6 12 -13 28 -14 36 -2 8 -6 17 -11 20 -4 3 -9 13 -11
21 -6 27 -85 204 -104 231 -9 14 -15 28 -12 31 2 3 -2 11 -11 18 -8 7 -15 21
-15 31 0 11 -4 19 -8 19 -8 0 -27 33 -31 55 -1 6 -10 19 -20 30 -9 11 -23 32
-31 48 -7 15 -17 27 -22 27 -4 0 -8 7 -8 15 0 8 -4 15 -10 15 -5 0 -10 5 -10
12 0 12 -74 113 -102 139 -10 9 -18 19 -18 23 0 4 -14 21 -31 39 -262 275
-288 304 -281 313 4 4 -1 4 -11 1 -10 -4 -16 -3 -13 2 5 8 -120 131 -133 131
-4 0 -17 10 -29 22 -27 30 -49 48 -58 48 -4 0 -21 10 -38 23 -43 32 -144 92
-219 130 -34 18 -68 38 -75 45 -7 6 -20 12 -27 12 -8 0 -26 11 -41 25 -15 14
-29 23 -31 21 -4 -4 -62 30 -88 52 -29 23 -275 155 -275 147 0 -4 -7 0 -14 8
-8 8 -35 21 -60 28 -26 7 -46 18 -46 23 0 5 -3 6 -7 3 -3 -4 -11 -3 -17 2 -6
4 -36 16 -66 25 -54 16 -87 29 -122 47 -10 5 -25 9 -33 9 -8 0 -23 4 -33 10
-35 20 -235 81 -249 76 -8 -3 -12 -2 -9 2 2 4 -23 16 -57 26 -152 45 -227 71
-227 78 0 4 -9 8 -19 8 -11 0 -23 5 -26 10 -3 6 -15 10 -26 10 -10 0 -19 5
-19 11 0 5 -4 7 -10 4 -5 -3 -10 -2 -10 2 0 5 -17 17 -37 26 -21 9 -62 32 -90
51 -29 19 -53 32 -53 28 0 -4 -4 -2 -8 5 -4 6 -43 30 -87 54 -44 24 -83 48
-87 53 -4 6 -8 8 -8 4 0 -8 -141 61 -150 73 -3 3 -28 15 -56 25 -42 14 -51 22
-51 41 0 13 2 23 6 23 4 0 7 8 8 18 1 9 7 31 14 47 6 17 13 37 15 45 1 8 4 24
7 35 3 11 8 34 12 50 4 17 13 49 21 72 7 23 15 52 18 65 11 56 11 56 156 192
49 46 85 88 93 109 3 9 11 17 17 17 5 0 10 6 10 14 0 8 7 16 15 20 8 3 15 12
15 20 0 9 10 24 22 36 12 11 18 20 13 20 -4 0 -1 8 7 18 23 24 70 112 61 112
-4 0 1 6 11 13 9 7 18 22 19 35 0 12 4 22 8 22 7 0 36 69 61 145 15 47 35 69
66 73 12 2 35 10 50 18 15 7 35 14 45 14 9 0 17 5 17 10 0 6 6 10 14 10 20 0
51 57 77 144 13 42 27 76 32 76 4 0 5 5 2 10 -4 6 -1 17 5 25 7 8 10 15 6 15
-3 0 1 16 9 36 8 20 12 40 9 45 -3 5 0 9 6 9 7 0 10 7 6 15 -3 8 -2 15 2 15 8
0 42 95 48 130 6 35 49 165 56 168 5 2 8 16 8 31 0 15 4 31 10 37 5 5 11 18
13 29 1 11 6 26 10 33 5 6 5 17 2 22 -3 6 -2 10 4 10 23 0 34 191 15 267 -7
26 -9 50 -5 53 3 3 7 33 8 68 1 69 -10 77 -13 9 -3 -72 -4 -77 -14 -77 -18 0
-23 50 -9 98 7 26 12 51 11 56 -2 5 3 5 10 -1 10 -9 13 -2 14 35 2 54 8 93 24
154 7 24 13 50 15 59 2 8 11 40 20 70 9 30 18 68 20 86 2 18 9 42 15 53 6 11
8 25 5 30 -3 6 -2 10 3 10 8 0 25 53 26 85 1 6 3 12 6 15 11 10 53 160 47 166
-3 4 -2 14 3 24 5 9 12 55 15 101 8 111 7 106 39 171 21 42 27 68 24 98 -3 36
-2 39 17 34 20 -5 20 -5 1 10 -11 9 -14 16 -8 16 9 0 10 4 2 13 -40 48 -54 75
-56 109 -1 21 1 38 5 39 43 6 50 4 60 -18 15 -33 38 -30 36 5 -5 51 -16 93
-30 116 -8 12 -12 25 -9 29 4 3 0 13 -7 21 -30 33 -35 42 -31 54 2 6 -1 12 -7
12 -6 0 -11 6 -11 14 0 7 -8 31 -17 52 -9 22 -18 44 -19 50 -1 6 -5 22 -9 35
-8 23 -7 23 16 6 13 -10 32 -20 42 -24 9 -3 17 -9 17 -14 0 -5 7 -9 15 -9 8 0
15 -8 15 -17 0 -12 3 -14 11 -6 15 15 -4 44 -76 114 -33 32 -57 60 -54 63 2 3
29 -1 59 -8 62 -16 90 -17 90 -4 0 5 -8 12 -17 15 -10 4 -31 15 -48 26 l-30
19 28 -5 c35 -6 35 14 0 31 -15 6 -31 12 -35 12 -5 0 -25 11 -46 24 -20 12
-41 24 -47 25 -19 5 -65 35 -65 43 0 4 -6 8 -14 8 -7 0 -19 6 -25 14 -9 11 -7
15 9 19 11 3 20 1 20 -5 0 -5 4 -7 9 -4 4 3 16 -1 27 -8 10 -8 24 -12 31 -9 7
3 13 0 13 -7 0 -7 7 -10 15 -7 8 4 17 2 20 -3 4 -6 17 -10 29 -10 19 0 22 4
19 24 -4 17 -10 23 -20 19 -15 -6 -41 5 -112 49 -25 16 -53 28 -63 28 -10 0
-18 4 -18 8 0 5 -16 14 -35 22 -19 8 -35 17 -35 22 0 4 -9 8 -20 8 -11 0 -25
9 -32 20 -7 11 -18 20 -25 20 -7 0 -13 4 -13 8 0 5 -12 15 -27 23 -33 17 -68
47 -62 53 2 2 22 -5 44 -16 22 -11 58 -27 80 -35 22 -9 53 -25 68 -36 15 -10
35 -20 43 -21 8 -1 25 -11 37 -22 24 -20 50 -38 82 -53 11 -5 34 -23 51 -40
17 -17 34 -28 37 -25 8 8 -185 194 -201 194 -7 0 -15 7 -18 15 -4 8 -11 15
-18 15 -6 0 -18 9 -26 20 -8 11 -21 20 -30 20 -9 0 -31 13 -50 30 -19 16 -39
29 -45 30 -5 0 -28 16 -49 35 -22 19 -42 32 -46 30 -3 -2 -12 0 -20 5 -37 23
23 27 193 14 42 -3 77 -3 77 0 0 9 -54 35 -81 38 -13 2 -28 6 -34 9 -5 3 -34
7 -63 8 -30 1 -70 9 -90 16 l-37 14 57 -4 c32 -2 59 -1 62 4 7 10 -25 36 -44
36 -8 0 -17 2 -20 5 -8 10 -96 49 -126 56 -16 4 -62 22 -102 40 -52 24 -87 34
-123 34 -28 0 -48 4 -44 9 3 5 -3 12 -12 14 -17 4 -8 6 72 11 17 1 37 -2 45
-8 8 -5 6 0 -6 13 -14 14 -36 24 -65 26 -53 6 -65 8 -102 23 -16 7 -33 12 -38
12 -5 0 -17 4 -27 9 -82 41 -102 50 -134 61 -21 6 -38 18 -38 25 0 15 -80 65
-107 66 -13 0 -9 4 11 13 16 7 25 15 20 18 -15 8 -94 9 -94 0 0 -9 -55 -7 -92
3 -36 9 -41 28 -16 60 27 35 18 40 -26 17 -38 -20 -100 -20 -206 2 -74 15
-204 20 -269 10 -20 -3 -46 -5 -58 -5 -13 0 -23 -3 -23 -7 0 -4 -13 -8 -30 -9
-16 -1 -40 -9 -52 -17 -13 -8 -26 -15 -30 -16 -12 -1 -81 -29 -100 -40 -10 -6
-18 -7 -18 -4 0 11 54 54 67 54 18 0 74 36 67 42 -8 8 -119 -19 -154 -37 -17
-9 -30 -13 -30 -9 0 4 -7 1 -15 -6 -8 -7 -15 -9 -15 -6 0 4 -7 0 -16 -8 -8 -9
-22 -16 -30 -16 -8 0 -14 -4 -14 -10 0 -12 -57 -14 -62 -2 -4 10 -64 52 -73
52 -4 0 -5 -18 -2 -40 5 -38 4 -40 -16 -34 -12 4 -24 9 -27 13 -9 11 -86 61
-95 61 -4 0 -33 12 -64 26 -61 29 -141 44 -141 26z"/>
<path d="M6902 7108 c5 -15 28 -23 28 -10 0 5 -7 13 -16 16 -10 4 -14 1 -12
-6z"/>
</g>
</svg>
